{
	"asset":{
		"generator":"Khronos glTF Blender I/O v3.5.30",
		"version":"2.0"
	},
	"scene":0,
	"scenes":[
		{
			"name":"Scene",
			"nodes":[
				6
			]
		}
	],
	"nodes":[
		{
			"mesh":0,
			"name":"propeller.1",
			"rotation":[
				0.7071068286895752,
				0,
				0,
				0.7071068286895752
			],
			"scale":[
				1.3468683958053589,
				1.0159659385681152,
				1
			],
			"translation":[
				74.93273162841797,
				-74.8354263305664,
				26.01111602783203
			]
		},
		{
			"mesh":1,
			"name":"propeller.2",
			"rotation":[
				0.7071068286895752,
				0,
				0,
				0.7071068286895752
			],
			"scale":[
				1.3468683958053589,
				1.0159659385681152,
				1
			],
			"translation":[
				-74.57079315185547,
				-74.99739837646484,
				26.033653259277344
			]
		},
		{
			"mesh":2,
			"name":"propeller.3",
			"rotation":[
				0.7071068286895752,
				0,
				0,
				0.7071068286895752
			],
			"scale":[
				1.3468683958053589,
				1.0159659385681152,
				1
			],
			"translation":[
				75.18892669677734,
				75.31893157958984,
				26.189002990722656
			]
		},
		{
			"mesh":3,
			"name":"Cube.001",
			"rotation":[
				0.5,
				0.5,
				-0.4999999403953552,
				0.5000000596046448
			],
			"translation":[
				34.00684356689453,
				4.344299793243408,
				-0.11408407986164093
			]
		},
		{
			"children":[
				3
			],
			"mesh":4,
			"name":"Cube",
			"scale":[
				0.7424630522727966,
				0.9842849373817444,
				1
			],
			"translation":[
				139.18121337890625,
				9.287341117858887,
				-0.3577876687049866
			]
		},
		{
			"children":[
				4
			],
			"mesh":5,
			"name":"propeller.4",
			"rotation":[
				0.7071068286895752,
				0,
				0,
				0.7071068286895752
			],
			"scale":[
				1.3468683958053589,
				1.0159659385681152,
				1
			],
			"translation":[
				-74.77881622314453,
				74.4601821899414,
				26.15430450439453
			]
		},
		{
			"children":[
				0,
				1,
				2,
				5
			],
			"mesh":6,
			"name":"body"
		}
	],
	"materials":[
		{
			"doubleSided":true,
			"name":"Material.001",
			"pbrMetallicRoughness":{
				"baseColorTexture":{
					"index":0
				},
				"metallicFactor":0,
				"roughnessFactor":0.5
			}
		}
	],
	"meshes":[
		{
			"name":"Cube.001",
			"primitives":[
				{
					"attributes":{
						"POSITION":0,
						"TEXCOORD_0":1,
						"NORMAL":2
					},
					"indices":3,
					"material":0
				}
			]
		},
		{
			"name":"Cube.002",
			"primitives":[
				{
					"attributes":{
						"POSITION":4,
						"TEXCOORD_0":5,
						"NORMAL":6
					},
					"indices":3,
					"material":0
				}
			]
		},
		{
			"name":"Cube.004",
			"primitives":[
				{
					"attributes":{
						"POSITION":7,
						"TEXCOORD_0":8,
						"NORMAL":9
					},
					"indices":3,
					"material":0
				}
			]
		},
		{
			"name":"Cube.005",
			"primitives":[
				{
					"attributes":{
						"POSITION":10,
						"TEXCOORD_0":11,
						"NORMAL":12
					},
					"indices":3,
					"material":0
				}
			]
		},
		{
			"name":"Cube",
			"primitives":[
				{
					"attributes":{
						"POSITION":13,
						"TEXCOORD_0":14,
						"NORMAL":15
					},
					"indices":3,
					"material":0
				}
			]
		},
		{
			"name":"Cube.003",
			"primitives":[
				{
					"attributes":{
						"POSITION":16,
						"TEXCOORD_0":17,
						"NORMAL":18
					},
					"indices":3,
					"material":0
				}
			]
		},
		{
			"name":"uav",
			"primitives":[
				{
					"attributes":{
						"POSITION":19,
						"TEXCOORD_0":20,
						"NORMAL":21
					},
					"indices":22,
					"material":0
				}
			]
		}
	],
	"textures":[
		{
			"sampler":0,
			"source":0
		}
	],
	"images":[
		{
			"mimeType":"image/png",
			"name":"Untitled",
			"uri":"../textures/Untitled.png"
		}
	],
	"accessors":[
		{
			"bufferView":0,
			"componentType":5126,
			"count":24,
			"max":[
				33.86076354980469,
				1.3385992050170898,
				2.971942901611328
			],
			"min":[
				-33.86076354980469,
				-1.3385992050170898,
				-2.971942901611328
			],
			"type":"VEC3"
		},
		{
			"bufferView":1,
			"componentType":5126,
			"count":24,
			"type":"VEC2"
		},
		{
			"bufferView":2,
			"componentType":5126,
			"count":24,
			"type":"VEC3"
		},
		{
			"bufferView":3,
			"componentType":5123,
			"count":36,
			"type":"SCALAR"
		},
		{
			"bufferView":4,
			"componentType":5126,
			"count":24,
			"max":[
				33.86076354980469,
				1.3385992050170898,
				2.971942901611328
			],
			"min":[
				-33.86076354980469,
				-1.3385992050170898,
				-2.971942901611328
			],
			"type":"VEC3"
		},
		{
			"bufferView":5,
			"componentType":5126,
			"count":24,
			"type":"VEC2"
		},
		{
			"bufferView":6,
			"componentType":5126,
			"count":24,
			"type":"VEC3"
		},
		{
			"bufferView":7,
			"componentType":5126,
			"count":24,
			"max":[
				33.86076354980469,
				1.3385992050170898,
				2.971942901611328
			],
			"min":[
				-33.86076354980469,
				-1.3385992050170898,
				-2.971942901611328
			],
			"type":"VEC3"
		},
		{
			"bufferView":8,
			"componentType":5126,
			"count":24,
			"type":"VEC2"
		},
		{
			"bufferView":9,
			"componentType":5126,
			"count":24,
			"type":"VEC3"
		},
		{
			"bufferView":10,
			"componentType":5126,
			"count":24,
			"max":[
				1.7555160522460938,
				26.858718872070312,
				3.6966495513916016
			],
			"min":[
				-1.7555160522460938,
				-26.858718872070312,
				-3.6966495513916016
			],
			"type":"VEC3"
		},
		{
			"bufferView":11,
			"componentType":5126,
			"count":24,
			"type":"VEC2"
		},
		{
			"bufferView":12,
			"componentType":5126,
			"count":24,
			"type":"VEC3"
		},
		{
			"bufferView":13,
			"componentType":5126,
			"count":24,
			"max":[
				7.148124694824219,
				8.040949821472168,
				2.4709854125976562
			],
			"min":[
				-7.148124694824219,
				-8.040949821472168,
				-2.4709854125976562
			],
			"type":"VEC3"
		},
		{
			"bufferView":14,
			"componentType":5126,
			"count":24,
			"type":"VEC2"
		},
		{
			"bufferView":15,
			"componentType":5126,
			"count":24,
			"type":"VEC3"
		},
		{
			"bufferView":16,
			"componentType":5126,
			"count":24,
			"max":[
				33.86076354980469,
				1.3385992050170898,
				2.971942901611328
			],
			"min":[
				-33.86076354980469,
				-1.3385992050170898,
				-2.971942901611328
			],
			"type":"VEC3"
		},
		{
			"bufferView":17,
			"componentType":5126,
			"count":24,
			"type":"VEC2"
		},
		{
			"bufferView":18,
			"componentType":5126,
			"count":24,
			"type":"VEC3"
		},
		{
			"bufferView":19,
			"componentType":5126,
			"count":4952,
			"max":[
				89.98649597167969,
				90.00001525878906,
				23.167909622192383
			],
			"min":[
				-89.98648834228516,
				-89.99998474121094,
				-16.832090377807617
			],
			"type":"VEC3"
		},
		{
			"bufferView":20,
			"componentType":5126,
			"count":4952,
			"type":"VEC2"
		},
		{
			"bufferView":21,
			"componentType":5126,
			"count":4952,
			"type":"VEC3"
		},
		{
			"bufferView":22,
			"componentType":5123,
			"count":7524,
			"type":"SCALAR"
		}
	],
	"bufferViews":[
		{
			"buffer":0,
			"byteLength":288,
			"byteOffset":0,
			"target":34962
		},
		{
			"buffer":0,
			"byteLength":192,
			"byteOffset":288,
			"target":34962
		},
		{
			"buffer":0,
			"byteLength":288,
			"byteOffset":480,
			"target":34962
		},
		{
			"buffer":0,
			"byteLength":72,
			"byteOffset":768,
			"target":34963
		},
		{
			"buffer":0,
			"byteLength":288,
			"byteOffset":840,
			"target":34962
		},
		{
			"buffer":0,
			"byteLength":192,
			"byteOffset":1128,
			"target":34962
		},
		{
			"buffer":0,
			"byteLength":288,
			"byteOffset":1320,
			"target":34962
		},
		{
			"buffer":0,
			"byteLength":288,
			"byteOffset":1608,
			"target":34962
		},
		{
			"buffer":0,
			"byteLength":192,
			"byteOffset":1896,
			"target":34962
		},
		{
			"buffer":0,
			"byteLength":288,
			"byteOffset":2088,
			"target":34962
		},
		{
			"buffer":0,
			"byteLength":288,
			"byteOffset":2376,
			"target":34962
		},
		{
			"buffer":0,
			"byteLength":192,
			"byteOffset":2664,
			"target":34962
		},
		{
			"buffer":0,
			"byteLength":288,
			"byteOffset":2856,
			"target":34962
		},
		{
			"buffer":0,
			"byteLength":288,
			"byteOffset":3144,
			"target":34962
		},
		{
			"buffer":0,
			"byteLength":192,
			"byteOffset":3432,
			"target":34962
		},
		{
			"buffer":0,
			"byteLength":288,
			"byteOffset":3624,
			"target":34962
		},
		{
			"buffer":0,
			"byteLength":288,
			"byteOffset":3912,
			"target":34962
		},
		{
			"buffer":0,
			"byteLength":192,
			"byteOffset":4200,
			"target":34962
		},
		{
			"buffer":0,
			"byteLength":288,
			"byteOffset":4392,
			"target":34962
		},
		{
			"buffer":0,
			"byteLength":59424,
			"byteOffset":4680,
			"target":34962
		},
		{
			"buffer":0,
			"byteLength":39616,
			"byteOffset":64104,
			"target":34962
		},
		{
			"buffer":0,
			"byteLength":59424,
			"byteOffset":103720,
			"target":34962
		},
		{
			"buffer":0,
			"byteLength":15048,
			"byteOffset":163144,
			"target":34963
		}
	],
	"samplers":[
		{
			"magFilter":9729,
			"minFilter":9987
		}
	],
	"buffers":[
		{
			"byteLength":178192,
			"uri":"drone.bin"
		}
	]
}
