{
	"asset":{
		"generator":"Khronos glTF Blender I/O v3.5.30",
		"version":"2.0"
	},
	"extensionsUsed":[
		"KHR_materials_unlit"
	],
	"scene":0,
	"scenes":[
		{
			"name":"Scene",
			"nodes":[
				24
			]
		}
	],
	"nodes":[
		{
			"mesh":0,
			"name":"part1_part1_0",
			"translation":[
				7.240043942147167e-06,
				0,
				0
			]
		},
		{
			"children":[
				0
			],
			"name":"part1",
			"rotation":[
				-0.70710688829422,
				0,
				0,
				0.7071066498756409
			],
			"scale":[
				0.3937009572982788,
				0.39370104670524597,
				0.39370104670524597
			],
			"translation":[
				2.850412329280516e-06,
				0,
				0
			]
		},
		{
			"mesh":1,
			"name":"part10_part10_0",
			"translation":[
				7.240043942147167e-06,
				0,
				0
			]
		},
		{
			"children":[
				2
			],
			"name":"part10",
			"rotation":[
				-0.70710688829422,
				0,
				0,
				0.7071066498756409
			],
			"scale":[
				0.3937009572982788,
				0.39370104670524597,
				0.39370104670524597
			],
			"translation":[
				2.850412329280516e-06,
				0,
				0
			]
		},
		{
			"mesh":2,
			"name":"part11_part11_0",
			"translation":[
				7.240043942147167e-06,
				0,
				0
			]
		},
		{
			"children":[
				4
			],
			"name":"part11",
			"rotation":[
				-0.70710688829422,
				0,
				0,
				0.7071066498756409
			],
			"scale":[
				0.3937009572982788,
				0.39370104670524597,
				0.39370104670524597
			],
			"translation":[
				2.850412329280516e-06,
				0,
				0
			]
		},
		{
			"mesh":3,
			"name":"part2_part2_0",
			"translation":[
				7.240043942147167e-06,
				0,
				0
			]
		},
		{
			"children":[
				6
			],
			"name":"part2",
			"rotation":[
				-0.70710688829422,
				0,
				0,
				0.7071066498756409
			],
			"scale":[
				0.3937009572982788,
				0.39370104670524597,
				0.39370104670524597
			],
			"translation":[
				2.850412329280516e-06,
				0,
				0
			]
		},
		{
			"mesh":4,
			"name":"part3_part3_0",
			"translation":[
				7.240043942147167e-06,
				0,
				0
			]
		},
		{
			"children":[
				8
			],
			"name":"part3",
			"rotation":[
				-0.70710688829422,
				0,
				0,
				0.7071066498756409
			],
			"scale":[
				0.3937009572982788,
				0.39370104670524597,
				0.39370104670524597
			],
			"translation":[
				2.850412329280516e-06,
				0,
				0
			]
		},
		{
			"mesh":5,
			"name":"part4_part4_0",
			"translation":[
				7.240043942147167e-06,
				0,
				0
			]
		},
		{
			"children":[
				10
			],
			"name":"part4",
			"rotation":[
				-0.70710688829422,
				0,
				0,
				0.7071066498756409
			],
			"scale":[
				0.3937009572982788,
				0.39370104670524597,
				0.39370104670524597
			],
			"translation":[
				2.850412329280516e-06,
				0,
				0
			]
		},
		{
			"mesh":6,
			"name":"part5_part5_0",
			"translation":[
				7.240043942147167e-06,
				0,
				0
			]
		},
		{
			"children":[
				12
			],
			"name":"part5",
			"rotation":[
				-0.70710688829422,
				0,
				0,
				0.7071066498756409
			],
			"scale":[
				0.3937009572982788,
				0.39370104670524597,
				0.39370104670524597
			],
			"translation":[
				2.850412329280516e-06,
				0,
				0
			]
		},
		{
			"mesh":7,
			"name":"part6_part6_0",
			"translation":[
				7.240043942147167e-06,
				0,
				0
			]
		},
		{
			"children":[
				14
			],
			"name":"part6",
			"rotation":[
				-0.70710688829422,
				0,
				0,
				0.7071066498756409
			],
			"scale":[
				0.3937009572982788,
				0.39370104670524597,
				0.39370104670524597
			],
			"translation":[
				2.850412329280516e-06,
				0,
				0
			]
		},
		{
			"mesh":8,
			"name":"part7_part7_0",
			"translation":[
				7.240043942147167e-06,
				0,
				0
			]
		},
		{
			"children":[
				16
			],
			"name":"part7",
			"rotation":[
				-0.70710688829422,
				0,
				0,
				0.7071066498756409
			],
			"scale":[
				0.3937009572982788,
				0.39370104670524597,
				0.39370104670524597
			],
			"translation":[
				2.850412329280516e-06,
				0,
				0
			]
		},
		{
			"mesh":9,
			"name":"part8_part8_0",
			"translation":[
				7.240043942147167e-06,
				0,
				0
			]
		},
		{
			"children":[
				18
			],
			"name":"part8",
			"rotation":[
				-0.70710688829422,
				0,
				0,
				0.7071066498756409
			],
			"scale":[
				0.3937009572982788,
				0.39370104670524597,
				0.39370104670524597
			],
			"translation":[
				2.850412329280516e-06,
				0,
				0
			]
		},
		{
			"mesh":10,
			"name":"part9_part9_0",
			"translation":[
				7.240043942147167e-06,
				0,
				0
			]
		},
		{
			"children":[
				20
			],
			"name":"part9",
			"rotation":[
				-0.70710688829422,
				0,
				0,
				0.7071066498756409
			],
			"scale":[
				0.3937009572982788,
				0.39370104670524597,
				0.39370104670524597
			],
			"translation":[
				2.850412329280516e-06,
				0,
				0
			]
		},
		{
			"children":[
				1,
				3,
				5,
				7,
				9,
				11,
				13,
				15,
				17,
				19,
				21
			],
			"name":"RootNode",
			"translation":[
				2.850412329280516e-06,
				0,
				0
			]
		},
		{
			"children":[
				22
			],
			"name":"eaf6f3c9fcd946a5959a413033a2ae7b.fbx",
			"rotation":[
				0.70710688829422,
				0,
				0,
				0.7071066498756409
			],
			"scale":[
				0.02539999969303608,
				0.025400003418326378,
				0.025400003418326378
			]
		},
		{
			"children":[
				23
			],
			"name":"Sketchfab_model",
			"rotation":[
				0,
				-0.7071068286895752,
				-0.7071068286895752,
				3.090862321641907e-08
			],
			"scale":[
				1.719419240951538,
				1.719419240951538,
				1.719419240951538
			],
			"translation":[
				9.309954643249512,
				0,
				1.4239625930786133
			]
		}
	],
	"materials":[
		{
			"doubleSided":true,
			"extensions":{
				"KHR_materials_unlit":{}
			},
			"name":"part1",
			"pbrMetallicRoughness":{
				"baseColorTexture":{
					"index":0,
					"texCoord":0
				},
				"metallicFactor":0,
				"roughnessFactor":0.9
			}
		},
		{
			"doubleSided":true,
			"extensions":{
				"KHR_materials_unlit":{}
			},
			"name":"part10",
			"pbrMetallicRoughness":{
				"baseColorTexture":{
					"index":1,
					"texCoord":0
				},
				"metallicFactor":0,
				"roughnessFactor":0.9
			}
		},
		{
			"doubleSided":true,
			"extensions":{
				"KHR_materials_unlit":{}
			},
			"name":"part11",
			"pbrMetallicRoughness":{
				"baseColorTexture":{
					"index":2,
					"texCoord":0
				},
				"metallicFactor":0,
				"roughnessFactor":0.9
			}
		},
		{
			"doubleSided":true,
			"extensions":{
				"KHR_materials_unlit":{}
			},
			"name":"part2",
			"pbrMetallicRoughness":{
				"baseColorTexture":{
					"index":3,
					"texCoord":0
				},
				"metallicFactor":0,
				"roughnessFactor":0.9
			}
		},
		{
			"doubleSided":true,
			"extensions":{
				"KHR_materials_unlit":{}
			},
			"name":"part3",
			"pbrMetallicRoughness":{
				"baseColorTexture":{
					"index":4,
					"texCoord":0
				},
				"metallicFactor":0,
				"roughnessFactor":0.9
			}
		},
		{
			"doubleSided":true,
			"extensions":{
				"KHR_materials_unlit":{}
			},
			"name":"part4",
			"pbrMetallicRoughness":{
				"baseColorTexture":{
					"index":5,
					"texCoord":0
				},
				"metallicFactor":0,
				"roughnessFactor":0.9
			}
		},
		{
			"doubleSided":true,
			"extensions":{
				"KHR_materials_unlit":{}
			},
			"name":"part5",
			"pbrMetallicRoughness":{
				"baseColorTexture":{
					"index":6,
					"texCoord":0
				},
				"metallicFactor":0,
				"roughnessFactor":0.9
			}
		},
		{
			"doubleSided":true,
			"extensions":{
				"KHR_materials_unlit":{}
			},
			"name":"part6",
			"pbrMetallicRoughness":{
				"baseColorTexture":{
					"index":7,
					"texCoord":0
				},
				"metallicFactor":0,
				"roughnessFactor":0.9
			}
		},
		{
			"doubleSided":true,
			"extensions":{
				"KHR_materials_unlit":{}
			},
			"name":"part7",
			"pbrMetallicRoughness":{
				"baseColorTexture":{
					"index":8,
					"texCoord":0
				},
				"metallicFactor":0,
				"roughnessFactor":0.9
			}
		},
		{
			"doubleSided":true,
			"extensions":{
				"KHR_materials_unlit":{}
			},
			"name":"part8",
			"pbrMetallicRoughness":{
				"baseColorTexture":{
					"index":9,
					"texCoord":0
				},
				"metallicFactor":0,
				"roughnessFactor":0.9
			}
		},
		{
			"doubleSided":true,
			"extensions":{
				"KHR_materials_unlit":{}
			},
			"name":"part9",
			"pbrMetallicRoughness":{
				"baseColorTexture":{
					"index":10,
					"texCoord":0
				},
				"metallicFactor":0,
				"roughnessFactor":0.9
			}
		}
	],
	"meshes":[
		{
			"name":"part1_part1_0",
			"primitives":[
				{
					"attributes":{
						"POSITION":0,
						"TEXCOORD_0":1,
						"TEXCOORD_1":2,
						"NORMAL":3
					},
					"indices":4,
					"material":0
				}
			]
		},
		{
			"name":"part10_part10_0",
			"primitives":[
				{
					"attributes":{
						"POSITION":5,
						"TEXCOORD_0":6,
						"TEXCOORD_1":7,
						"NORMAL":8
					},
					"indices":9,
					"material":1
				}
			]
		},
		{
			"name":"part11_part11_0",
			"primitives":[
				{
					"attributes":{
						"POSITION":10,
						"TEXCOORD_0":11,
						"TEXCOORD_1":12,
						"NORMAL":13
					},
					"indices":14,
					"material":2
				}
			]
		},
		{
			"name":"part2_part2_0",
			"primitives":[
				{
					"attributes":{
						"POSITION":15,
						"TEXCOORD_0":16,
						"TEXCOORD_1":17,
						"NORMAL":18
					},
					"indices":19,
					"material":3
				}
			]
		},
		{
			"name":"part3_part3_0",
			"primitives":[
				{
					"attributes":{
						"POSITION":20,
						"TEXCOORD_0":21,
						"TEXCOORD_1":22,
						"NORMAL":23
					},
					"indices":24,
					"material":4
				}
			]
		},
		{
			"name":"part4_part4_0",
			"primitives":[
				{
					"attributes":{
						"POSITION":25,
						"TEXCOORD_0":26,
						"TEXCOORD_1":27,
						"NORMAL":28
					},
					"indices":29,
					"material":5
				}
			]
		},
		{
			"name":"part5_part5_0",
			"primitives":[
				{
					"attributes":{
						"POSITION":30,
						"TEXCOORD_0":31,
						"TEXCOORD_1":32,
						"NORMAL":33
					},
					"indices":34,
					"material":6
				}
			]
		},
		{
			"name":"part6_part6_0",
			"primitives":[
				{
					"attributes":{
						"POSITION":35,
						"TEXCOORD_0":36,
						"TEXCOORD_1":37,
						"NORMAL":38
					},
					"indices":39,
					"material":7
				}
			]
		},
		{
			"name":"part7_part7_0",
			"primitives":[
				{
					"attributes":{
						"POSITION":40,
						"TEXCOORD_0":41,
						"TEXCOORD_1":42,
						"NORMAL":43
					},
					"indices":44,
					"material":8
				}
			]
		},
		{
			"name":"part8_part8_0",
			"primitives":[
				{
					"attributes":{
						"POSITION":45,
						"TEXCOORD_0":46,
						"TEXCOORD_1":47,
						"NORMAL":48
					},
					"indices":49,
					"material":9
				}
			]
		},
		{
			"name":"part9_part9_0",
			"primitives":[
				{
					"attributes":{
						"POSITION":50,
						"TEXCOORD_0":51,
						"TEXCOORD_1":52,
						"NORMAL":53
					},
					"indices":54,
					"material":10
				}
			]
		}
	],
	"textures":[
		{
			"sampler":0,
			"source":0
		},
		{
			"sampler":0,
			"source":1
		},
		{
			"sampler":0,
			"source":2
		},
		{
			"sampler":0,
			"source":3
		},
		{
			"sampler":0,
			"source":4
		},
		{
			"sampler":0,
			"source":5
		},
		{
			"sampler":0,
			"source":6
		},
		{
			"sampler":0,
			"source":7
		},
		{
			"sampler":0,
			"source":8
		},
		{
			"sampler":0,
			"source":9
		},
		{
			"sampler":0,
			"source":10
		}
	],
	"images":[
		{
			"mimeType":"image/jpeg",
			"name":"Image_1",
			"uri":"../textures/dust/Image_1.jpg"
		},
		{
			"mimeType":"image/jpeg",
			"name":"Image_10",
			"uri":"../textures/dust/Image_10.jpg"
		},
		{
			"mimeType":"image/jpeg",
			"name":"Image_0",
			"uri":"../textures/dust/Image_0.jpg"
		},
		{
			"mimeType":"image/jpeg",
			"name":"Image_2",
			"uri":"../textures/dust/Image_2.jpg"
		},
		{
			"mimeType":"image/jpeg",
			"name":"Image_3",
			"uri":"../textures/dust/Image_3.jpg"
		},
		{
			"mimeType":"image/jpeg",
			"name":"Image_4",
			"uri":"../textures/dust/Image_4.jpg"
		},
		{
			"mimeType":"image/jpeg",
			"name":"Image_5",
			"uri":"../textures/dust/Image_5.jpg"
		},
		{
			"mimeType":"image/jpeg",
			"name":"Image_6",
			"uri":"../textures/dust/Image_6.jpg"
		},
		{
			"mimeType":"image/jpeg",
			"name":"Image_7",
			"uri":"../textures/dust/Image_7.jpg"
		},
		{
			"mimeType":"image/jpeg",
			"name":"Image_8",
			"uri":"../textures/dust/Image_8.jpg"
		},
		{
			"mimeType":"image/jpeg",
			"name":"Image_9",
			"uri":"../textures/dust/Image_9.jpg"
		}
	],
	"accessors":[
		{
			"bufferView":0,
			"componentType":5126,
			"count":1077,
			"max":[
				-1115.010009765625,
				0,
				3776
			],
			"min":[
				-2560,
				-384,
				2048
			],
			"type":"VEC3"
		},
		{
			"bufferView":1,
			"componentType":5126,
			"count":1077,
			"type":"VEC2"
		},
		{
			"bufferView":2,
			"componentType":5126,
			"count":1077,
			"type":"VEC2"
		},
		{
			"bufferView":3,
			"componentType":5126,
			"count":1077,
			"type":"VEC3"
		},
		{
			"bufferView":4,
			"componentType":5123,
			"count":2361,
			"type":"SCALAR"
		},
		{
			"bufferView":5,
			"componentType":5126,
			"count":1462,
			"max":[
				1920,
				192,
				1888
			],
			"min":[
				496,
				-352,
				-256
			],
			"type":"VEC3"
		},
		{
			"bufferView":6,
			"componentType":5126,
			"count":1462,
			"type":"VEC2"
		},
		{
			"bufferView":7,
			"componentType":5126,
			"count":1462,
			"type":"VEC2"
		},
		{
			"bufferView":8,
			"componentType":5126,
			"count":1462,
			"type":"VEC3"
		},
		{
			"bufferView":9,
			"componentType":5123,
			"count":3282,
			"type":"SCALAR"
		},
		{
			"bufferView":10,
			"componentType":5126,
			"count":1312,
			"max":[
				784,
				0,
				704
			],
			"min":[
				0,
				-352,
				-912
			],
			"type":"VEC3"
		},
		{
			"bufferView":11,
			"componentType":5126,
			"count":1312,
			"type":"VEC2"
		},
		{
			"bufferView":12,
			"componentType":5126,
			"count":1312,
			"type":"VEC2"
		},
		{
			"bufferView":13,
			"componentType":5126,
			"count":1312,
			"type":"VEC3"
		},
		{
			"bufferView":14,
			"componentType":5123,
			"count":2925,
			"type":"SCALAR"
		},
		{
			"bufferView":15,
			"componentType":5126,
			"count":1295,
			"max":[
				-1216,
				0.20999999344348907,
				2448
			],
			"min":[
				-2496,
				-384,
				960
			],
			"type":"VEC3"
		},
		{
			"bufferView":16,
			"componentType":5126,
			"count":1295,
			"type":"VEC2"
		},
		{
			"bufferView":17,
			"componentType":5126,
			"count":1295,
			"type":"VEC2"
		},
		{
			"bufferView":18,
			"componentType":5126,
			"count":1295,
			"type":"VEC3"
		},
		{
			"bufferView":19,
			"componentType":5123,
			"count":2763,
			"type":"SCALAR"
		},
		{
			"bufferView":20,
			"componentType":5126,
			"count":928,
			"max":[
				-1296,
				0,
				1088
			],
			"min":[
				-2112,
				-416,
				-272
			],
			"type":"VEC3"
		},
		{
			"bufferView":21,
			"componentType":5126,
			"count":928,
			"type":"VEC2"
		},
		{
			"bufferView":22,
			"componentType":5126,
			"count":928,
			"type":"VEC2"
		},
		{
			"bufferView":23,
			"componentType":5126,
			"count":928,
			"type":"VEC3"
		},
		{
			"bufferView":24,
			"componentType":5123,
			"count":2049,
			"type":"SCALAR"
		},
		{
			"bufferView":25,
			"componentType":5126,
			"count":561,
			"max":[
				-1184,
				-36,
				-272
			],
			"min":[
				-2256,
				-416,
				-1536
			],
			"type":"VEC3"
		},
		{
			"bufferView":26,
			"componentType":5126,
			"count":561,
			"type":"VEC2"
		},
		{
			"bufferView":27,
			"componentType":5126,
			"count":561,
			"type":"VEC2"
		},
		{
			"bufferView":28,
			"componentType":5126,
			"count":561,
			"type":"VEC3"
		},
		{
			"bufferView":29,
			"componentType":5123,
			"count":1311,
			"type":"SCALAR"
		},
		{
			"bufferView":30,
			"componentType":5126,
			"count":752,
			"max":[
				160,
				0,
				-32
			],
			"min":[
				-1360,
				-384,
				-1152
			],
			"type":"VEC3"
		},
		{
			"bufferView":31,
			"componentType":5126,
			"count":752,
			"type":"VEC2"
		},
		{
			"bufferView":32,
			"componentType":5126,
			"count":752,
			"type":"VEC2"
		},
		{
			"bufferView":33,
			"componentType":5126,
			"count":752,
			"type":"VEC3"
		},
		{
			"bufferView":34,
			"componentType":5123,
			"count":1596,
			"type":"SCALAR"
		},
		{
			"bufferView":35,
			"componentType":5126,
			"count":736,
			"max":[
				192,
				96,
				1152
			],
			"min":[
				-768,
				-384,
				-224
			],
			"type":"VEC3"
		},
		{
			"bufferView":36,
			"componentType":5126,
			"count":736,
			"type":"VEC2"
		},
		{
			"bufferView":37,
			"componentType":5126,
			"count":736,
			"type":"VEC2"
		},
		{
			"bufferView":38,
			"componentType":5126,
			"count":736,
			"type":"VEC3"
		},
		{
			"bufferView":39,
			"componentType":5123,
			"count":1551,
			"type":"SCALAR"
		},
		{
			"bufferView":40,
			"componentType":5126,
			"count":1021,
			"max":[
				0,
				128,
				2992
			],
			"min":[
				-1335.489990234375,
				-372,
				1936
			],
			"type":"VEC3"
		},
		{
			"bufferView":41,
			"componentType":5126,
			"count":1021,
			"type":"VEC2"
		},
		{
			"bufferView":42,
			"componentType":5126,
			"count":1021,
			"type":"VEC2"
		},
		{
			"bufferView":43,
			"componentType":5126,
			"count":1021,
			"type":"VEC3"
		},
		{
			"bufferView":44,
			"componentType":5123,
			"count":2028,
			"type":"SCALAR"
		},
		{
			"bufferView":45,
			"componentType":5126,
			"count":1874,
			"max":[
				640,
				128,
				2080
			],
			"min":[
				-1312,
				-384,
				1024
			],
			"type":"VEC3"
		},
		{
			"bufferView":46,
			"componentType":5126,
			"count":1874,
			"type":"VEC2"
		},
		{
			"bufferView":47,
			"componentType":5126,
			"count":1874,
			"type":"VEC2"
		},
		{
			"bufferView":48,
			"componentType":5126,
			"count":1874,
			"type":"VEC3"
		},
		{
			"bufferView":49,
			"componentType":5123,
			"count":3936,
			"type":"SCALAR"
		},
		{
			"bufferView":50,
			"componentType":5126,
			"count":1474,
			"max":[
				1920,
				128,
				3088
			],
			"min":[
				-256,
				-352,
				1888
			],
			"type":"VEC3"
		},
		{
			"bufferView":51,
			"componentType":5126,
			"count":1474,
			"type":"VEC2"
		},
		{
			"bufferView":52,
			"componentType":5126,
			"count":1474,
			"type":"VEC2"
		},
		{
			"bufferView":53,
			"componentType":5126,
			"count":1474,
			"type":"VEC3"
		},
		{
			"bufferView":54,
			"componentType":5123,
			"count":3381,
			"type":"SCALAR"
		}
	],
	"bufferViews":[
		{
			"buffer":0,
			"byteLength":12924,
			"byteOffset":0,
			"target":34962
		},
		{
			"buffer":0,
			"byteLength":8616,
			"byteOffset":12924,
			"target":34962
		},
		{
			"buffer":0,
			"byteLength":8616,
			"byteOffset":21540,
			"target":34962
		},
		{
			"buffer":0,
			"byteLength":12924,
			"byteOffset":30156,
			"target":34962
		},
		{
			"buffer":0,
			"byteLength":4722,
			"byteOffset":43080,
			"target":34963
		},
		{
			"buffer":0,
			"byteLength":17544,
			"byteOffset":47804,
			"target":34962
		},
		{
			"buffer":0,
			"byteLength":11696,
			"byteOffset":65348,
			"target":34962
		},
		{
			"buffer":0,
			"byteLength":11696,
			"byteOffset":77044,
			"target":34962
		},
		{
			"buffer":0,
			"byteLength":17544,
			"byteOffset":88740,
			"target":34962
		},
		{
			"buffer":0,
			"byteLength":6564,
			"byteOffset":106284,
			"target":34963
		},
		{
			"buffer":0,
			"byteLength":15744,
			"byteOffset":112848,
			"target":34962
		},
		{
			"buffer":0,
			"byteLength":10496,
			"byteOffset":128592,
			"target":34962
		},
		{
			"buffer":0,
			"byteLength":10496,
			"byteOffset":139088,
			"target":34962
		},
		{
			"buffer":0,
			"byteLength":15744,
			"byteOffset":149584,
			"target":34962
		},
		{
			"buffer":0,
			"byteLength":5850,
			"byteOffset":165328,
			"target":34963
		},
		{
			"buffer":0,
			"byteLength":15540,
			"byteOffset":171180,
			"target":34962
		},
		{
			"buffer":0,
			"byteLength":10360,
			"byteOffset":186720,
			"target":34962
		},
		{
			"buffer":0,
			"byteLength":10360,
			"byteOffset":197080,
			"target":34962
		},
		{
			"buffer":0,
			"byteLength":15540,
			"byteOffset":207440,
			"target":34962
		},
		{
			"buffer":0,
			"byteLength":5526,
			"byteOffset":222980,
			"target":34963
		},
		{
			"buffer":0,
			"byteLength":11136,
			"byteOffset":228508,
			"target":34962
		},
		{
			"buffer":0,
			"byteLength":7424,
			"byteOffset":239644,
			"target":34962
		},
		{
			"buffer":0,
			"byteLength":7424,
			"byteOffset":247068,
			"target":34962
		},
		{
			"buffer":0,
			"byteLength":11136,
			"byteOffset":254492,
			"target":34962
		},
		{
			"buffer":0,
			"byteLength":4098,
			"byteOffset":265628,
			"target":34963
		},
		{
			"buffer":0,
			"byteLength":6732,
			"byteOffset":269728,
			"target":34962
		},
		{
			"buffer":0,
			"byteLength":4488,
			"byteOffset":276460,
			"target":34962
		},
		{
			"buffer":0,
			"byteLength":4488,
			"byteOffset":280948,
			"target":34962
		},
		{
			"buffer":0,
			"byteLength":6732,
			"byteOffset":285436,
			"target":34962
		},
		{
			"buffer":0,
			"byteLength":2622,
			"byteOffset":292168,
			"target":34963
		},
		{
			"buffer":0,
			"byteLength":9024,
			"byteOffset":294792,
			"target":34962
		},
		{
			"buffer":0,
			"byteLength":6016,
			"byteOffset":303816,
			"target":34962
		},
		{
			"buffer":0,
			"byteLength":6016,
			"byteOffset":309832,
			"target":34962
		},
		{
			"buffer":0,
			"byteLength":9024,
			"byteOffset":315848,
			"target":34962
		},
		{
			"buffer":0,
			"byteLength":3192,
			"byteOffset":324872,
			"target":34963
		},
		{
			"buffer":0,
			"byteLength":8832,
			"byteOffset":328064,
			"target":34962
		},
		{
			"buffer":0,
			"byteLength":5888,
			"byteOffset":336896,
			"target":34962
		},
		{
			"buffer":0,
			"byteLength":5888,
			"byteOffset":342784,
			"target":34962
		},
		{
			"buffer":0,
			"byteLength":8832,
			"byteOffset":348672,
			"target":34962
		},
		{
			"buffer":0,
			"byteLength":3102,
			"byteOffset":357504,
			"target":34963
		},
		{
			"buffer":0,
			"byteLength":12252,
			"byteOffset":360608,
			"target":34962
		},
		{
			"buffer":0,
			"byteLength":8168,
			"byteOffset":372860,
			"target":34962
		},
		{
			"buffer":0,
			"byteLength":8168,
			"byteOffset":381028,
			"target":34962
		},
		{
			"buffer":0,
			"byteLength":12252,
			"byteOffset":389196,
			"target":34962
		},
		{
			"buffer":0,
			"byteLength":4056,
			"byteOffset":401448,
			"target":34963
		},
		{
			"buffer":0,
			"byteLength":22488,
			"byteOffset":405504,
			"target":34962
		},
		{
			"buffer":0,
			"byteLength":14992,
			"byteOffset":427992,
			"target":34962
		},
		{
			"buffer":0,
			"byteLength":14992,
			"byteOffset":442984,
			"target":34962
		},
		{
			"buffer":0,
			"byteLength":22488,
			"byteOffset":457976,
			"target":34962
		},
		{
			"buffer":0,
			"byteLength":7872,
			"byteOffset":480464,
			"target":34963
		},
		{
			"buffer":0,
			"byteLength":17688,
			"byteOffset":488336,
			"target":34962
		},
		{
			"buffer":0,
			"byteLength":11792,
			"byteOffset":506024,
			"target":34962
		},
		{
			"buffer":0,
			"byteLength":11792,
			"byteOffset":517816,
			"target":34962
		},
		{
			"buffer":0,
			"byteLength":17688,
			"byteOffset":529608,
			"target":34962
		},
		{
			"buffer":0,
			"byteLength":6762,
			"byteOffset":547296,
			"target":34963
		}
	],
	"samplers":[
		{
			"magFilter":9729,
			"minFilter":9987
		}
	],
	"buffers":[
		{
			"byteLength":554060,
			"uri":"dust.bin"
		}
	]
}
