{
	"asset":{
		"generator":"Khronos glTF Blender I/O v3.5.30",
		"version":"2.0"
	},
	"scene":0,
	"scenes":[
		{
			"name":"Scene",
			"nodes":[
				5
			]
		}
	],
	"nodes":[
		{
			"mesh":0,
			"name":"Object_2"
		},
		{
			"mesh":1,
			"name":"Object_3"
		},
		{
			"mesh":2,
			"name":"Object_4"
		},
		{
			"mesh":3,
			"name":"Object_5"
		},
		{
			"children":[
				0,
				1,
				2,
				3
			],
			"name":"sands location.obj.cleaner"
		},
		{
			"children":[
				4
			],
			"name":"Sketchfab_model",
			"rotation":[
				0.5,
				0.5,
				0.5000000596046448,
				0.4999999403953552
			],
			"scale":[
				2.139270067214966,
				2.139270067214966,
				2.139270067214966
			],
			"translation":[
				71.00846862792969,
				-2.7797281742095947,
				18.812541961669922
			]
		}
	],
	"materials":[
		{
			"alphaCutoff":0.009999999776482582,
			"alphaMode":"MASK",
			"doubleSided":true,
			"name":"map_2_island1",
			"pbrMetallicRoughness":{
				"baseColorTexture":{
					"index":0
				},
				"metallicFactor":0,
				"roughnessFactor":0.6000000238418579
			}
		},
		{
			"alphaCutoff":0.009999999776482582,
			"alphaMode":"MASK",
			"doubleSided":true,
			"name":"map_2_object1",
			"pbrMetallicRoughness":{
				"baseColorTexture":{
					"index":1
				},
				"metallicFactor":0,
				"roughnessFactor":0.6000000238418579
			}
		},
		{
			"doubleSided":true,
			"name":"map_2_terrain1",
			"pbrMetallicRoughness":{
				"baseColorTexture":{
					"index":2
				},
				"metallicFactor":0,
				"roughnessFactor":0.6000000238418579
			}
		},
		{
			"alphaMode":"BLEND",
			"doubleSided":true,
			"emissiveFactor":[
				1,
				1,
				1
			],
			"emissiveTexture":{
				"index":3
			},
			"name":"map_4lambert5SG",
			"pbrMetallicRoughness":{
				"baseColorTexture":{
					"index":4
				},
				"metallicFactor":0,
				"roughnessFactor":0.6000000238418579
			}
		}
	],
	"meshes":[
		{
			"name":"Object_0",
			"primitives":[
				{
					"attributes":{
						"POSITION":0,
						"TEXCOORD_0":1,
						"NORMAL":2
					},
					"indices":3,
					"material":0
				}
			]
		},
		{
			"name":"Object_1",
			"primitives":[
				{
					"attributes":{
						"POSITION":4,
						"TEXCOORD_0":5,
						"NORMAL":6
					},
					"indices":7,
					"material":1
				}
			]
		},
		{
			"name":"Object_2",
			"primitives":[
				{
					"attributes":{
						"POSITION":8,
						"TEXCOORD_0":9,
						"NORMAL":10
					},
					"indices":11,
					"material":2
				}
			]
		},
		{
			"name":"Object_3",
			"primitives":[
				{
					"attributes":{
						"POSITION":12,
						"TEXCOORD_0":13,
						"NORMAL":14
					},
					"indices":15,
					"material":3
				}
			]
		}
	],
	"textures":[
		{
			"sampler":0,
			"source":0
		},
		{
			"sampler":0,
			"source":1
		},
		{
			"sampler":0,
			"source":2
		},
		{
			"sampler":0,
			"source":3
		},
		{
			"sampler":0,
			"source":4
		}
	],
	"images":[
		{
			"mimeType":"image/png",
			"name":"Image_0",
			"uri":"../textures/sand/Image_0.png"
		},
		{
			"mimeType":"image/png",
			"name":"Image_1",
			"uri":"../textures/sand/Image_1.png"
		},
		{
			"mimeType":"image/png",
			"name":"Image_2",
			"uri":"../textures/sand/Image_2.png"
		},
		{
			"mimeType":"image/png",
			"name":"Image_4",
			"uri":"../textures/sand/Image_4.png"
		},
		{
			"mimeType":"image/png",
			"name":"Image_3",
			"uri":"../textures/sand/Image_3.png"
		}
	],
	"accessors":[
		{
			"bufferView":0,
			"componentType":5126,
			"count":3263,
			"max":[
				8.895901679992676,
				0.3015510141849518,
				17.958934783935547
			],
			"min":[
				-11.714615821838379,
				-17.922544479370117,
				-30.655303955078125
			],
			"type":"VEC3"
		},
		{
			"bufferView":1,
			"componentType":5126,
			"count":3263,
			"type":"VEC2"
		},
		{
			"bufferView":2,
			"componentType":5126,
			"count":3263,
			"type":"VEC3"
		},
		{
			"bufferView":3,
			"componentType":5123,
			"count":12147,
			"type":"SCALAR"
		},
		{
			"bufferView":4,
			"componentType":5126,
			"count":12547,
			"max":[
				11.667268753051758,
				-1.5019299983978271,
				27.899555206298828
			],
			"min":[
				-9.560873985290527,
				-18.28466033935547,
				-32.353084564208984
			],
			"type":"VEC3"
		},
		{
			"bufferView":5,
			"componentType":5126,
			"count":12547,
			"type":"VEC2"
		},
		{
			"bufferView":6,
			"componentType":5126,
			"count":12547,
			"type":"VEC3"
		},
		{
			"bufferView":7,
			"componentType":5123,
			"count":43896,
			"type":"SCALAR"
		},
		{
			"bufferView":8,
			"componentType":5126,
			"count":2779,
			"max":[
				13.744370460510254,
				0.13781100511550903,
				36.88666534423828
			],
			"min":[
				-12.208108901977539,
				-21.66046714782715,
				-35.39787292480469
			],
			"type":"VEC3"
		},
		{
			"bufferView":9,
			"componentType":5126,
			"count":2779,
			"type":"VEC2"
		},
		{
			"bufferView":10,
			"componentType":5126,
			"count":2779,
			"type":"VEC3"
		},
		{
			"bufferView":11,
			"componentType":5123,
			"count":13968,
			"type":"SCALAR"
		},
		{
			"bufferView":12,
			"componentType":5126,
			"count":1406,
			"max":[
				5.014854907989502,
				-8.688804626464844,
				5.024853229522705
			],
			"min":[
				-2.1572930812835693,
				-12.184663772583008,
				-27.734086990356445
			],
			"type":"VEC3"
		},
		{
			"bufferView":13,
			"componentType":5126,
			"count":1406,
			"type":"VEC2"
		},
		{
			"bufferView":14,
			"componentType":5126,
			"count":1406,
			"type":"VEC3"
		},
		{
			"bufferView":15,
			"componentType":5123,
			"count":1782,
			"type":"SCALAR"
		}
	],
	"bufferViews":[
		{
			"buffer":0,
			"byteLength":39156,
			"byteOffset":0,
			"target":34962
		},
		{
			"buffer":0,
			"byteLength":26104,
			"byteOffset":39156,
			"target":34962
		},
		{
			"buffer":0,
			"byteLength":39156,
			"byteOffset":65260,
			"target":34962
		},
		{
			"buffer":0,
			"byteLength":24294,
			"byteOffset":104416,
			"target":34963
		},
		{
			"buffer":0,
			"byteLength":150564,
			"byteOffset":128712,
			"target":34962
		},
		{
			"buffer":0,
			"byteLength":100376,
			"byteOffset":279276,
			"target":34962
		},
		{
			"buffer":0,
			"byteLength":150564,
			"byteOffset":379652,
			"target":34962
		},
		{
			"buffer":0,
			"byteLength":87792,
			"byteOffset":530216,
			"target":34963
		},
		{
			"buffer":0,
			"byteLength":33348,
			"byteOffset":618008,
			"target":34962
		},
		{
			"buffer":0,
			"byteLength":22232,
			"byteOffset":651356,
			"target":34962
		},
		{
			"buffer":0,
			"byteLength":33348,
			"byteOffset":673588,
			"target":34962
		},
		{
			"buffer":0,
			"byteLength":27936,
			"byteOffset":706936,
			"target":34963
		},
		{
			"buffer":0,
			"byteLength":16872,
			"byteOffset":734872,
			"target":34962
		},
		{
			"buffer":0,
			"byteLength":11248,
			"byteOffset":751744,
			"target":34962
		},
		{
			"buffer":0,
			"byteLength":16872,
			"byteOffset":762992,
			"target":34962
		},
		{
			"buffer":0,
			"byteLength":3564,
			"byteOffset":779864,
			"target":34963
		}
	],
	"samplers":[
		{
			"magFilter":9729,
			"minFilter":9987
		}
	],
	"buffers":[
		{
			"byteLength":783428,
			"uri":"sand.bin"
		}
	]
}
